<?xml version="1.0" encoding="iso-8859-1"?>
<!-- Generator: Adobe Illustrator 16.0.0, SVG Export Plug-In . SVG Version: 6.00 Build 0)  -->
<!DOCTYPE svg PUBLIC "-//W3C//DTD SVG 1.1//EN" "http://www.w3.org/Graphics/SVG/1.1/DTD/svg11.dtd">
<svg version="1.1" id="Capa_1" xmlns="http://www.w3.org/2000/svg" xmlns:xlink="http://www.w3.org/1999/xlink" x="0px" y="0px"
	 width="34.365px" height="34.365px" viewBox="0 0 34.365 34.365" style="enable-background:new 0 0 34.365 34.365;"
	 xml:space="preserve">
<g>
	<path d="M21.778,32.643c0.146,0.174,0.464,0.369-0.074,0.561c-0.538,0.19-1.466,0.229-1.886,0.133s-0.553-0.375-0.84-0.479
		c-0.287-0.104-0.42-0.021-0.354,0.235c0.066,0.258,0.715,0.546,0.942,0.59c0.229,0.044-0.028,0.528-0.39,0.567
		c-0.362,0.039-1.29,0.154-1.784,0.103c-0.494-0.052-0.84-0.44-0.84-0.44s-0.715,0.103-0.914-0.142
		c-0.198-0.242,0.177-0.729,0.089-1.769c-0.089-1.038-0.902-3.957-0.84-5.127s0.164-2.361,0.066-3.779
		c-0.099-1.419-0.37-4.914-0.24-5.717c0.13-0.804,0.261-0.709,0.416-1.265c0.156-0.557,0.393-2.201,0.291-2.432
		c-0.04-0.09-0.417-0.156-0.577-0.489c-0.25-0.519-0.328-1.35-0.509-1.348c-0.296,0.003-0.624,1.468-0.721,1.982
		c-0.097,0.514-0.727,0.647-0.771,0.725c-0.044,0.077,0.035,1.052,0.3,1.587c0.264,0.535,0.295,0.733,0.566,0.806
		c0.149,0.039,0.352,0.35,0.479,0.581c0.022,0.039-0.093,0.041-0.073,0.08c0.073,0.151,0.226,0.24,0.237,0.328
		c0.009,0.063-0.007,0.126-0.038,0.186c-0.032,0.06-0.101,0.053-0.155,0.1c-0.049,0.041-0.031,0.114-0.084,0.138
		c-0.053,0.024-0.155,0.062-0.198,0.06C13.7,18.41,13.53,18.18,13.53,18.18l0.206,0.517c0,0,0.043,0.153-0.121,0.133
		c-0.163-0.021-0.517-0.392-0.517-0.392s0.165,0.515,0.044,0.541c-0.122,0.028-0.442-0.437-0.442-0.437s-0.274-0.474-0.342-1.099
		c-0.04-0.371-0.554-1.515-0.841-2.327c-0.196-0.557-0.182-0.906-0.254-0.95c-0.178-0.107-0.638-0.291-0.541-0.829
		c0.096-0.537,2.025-3.664,2.626-4.313c0.601-0.648,2.214-1.135,2.446-1.233c0.231-0.1,0.39-0.395,0.294-0.888
		c-0.096-0.494-0.427-0.546-0.427-0.546s-0.497,0.393-0.729,0.477s-0.597-0.061-0.214-0.564c0.383-0.505,0.684-0.9,0.684-0.9
		s-0.607-0.733-0.561-1.085c0.047-0.351,1.649-1.753,1.881-1.742c0.232,0.011,0.737,0.618,0.737,0.618s0.635-0.497,1.031-0.663
		c0.397-0.166,0.643,0.311,0.383,0.663c-0.258,0.354-0.639,0.875-0.639,0.875s0.197,0.37,0.314,0.555
		c0.057,0.087,0.022,0.333,0.04,0.692c0.02,0.396,0.083,0.913,0.063,1.12c-0.041,0.394-0.497,0.683-0.497,0.683
		S18.05,7.844,18.264,7.84c0.216-0.004,1.062-0.569,1.062-0.569s1.448-0.628,1.787-0.971c0.186-0.187,0.52-1.044,0.803-1.492
		c0.237-0.373,0.447-0.341,0.442-0.541c-0.012-0.442,0.287-2.045,0.198-2.178c-0.088-0.132-0.674-0.243-0.674-0.243l-0.357-0.379
		c0,0-0.029-0.129,0.004-0.251c0.033-0.121,0.158-0.103,0.158-0.103s-0.048-0.151,0.019-0.278c0.067-0.127,0.173-0.075,0.173-0.075
		s-0.14-0.218-0.034-0.334c0.104-0.116,0.314-0.064,0.314-0.064s-0.065-0.229,0.044-0.327c0.11-0.1,0.295,0.048,0.295,0.048
		s0.436,0.449,0.611,0.615c0.177,0.165,0.379,0.4,0.391,0.637c0.013,0.237,0.198,3.931,0.147,4.244
		c-0.032,0.193-0.877,1.599-1.742,2.711c-0.536,0.688-1.229,1.265-1.293,1.37c-0.166,0.276-0.354,2.52-0.354,2.763
		c0,0.243-0.486-0.11-0.486-0.11s-0.354,3.935-0.133,4.554c0.221,0.618,0.271,1.447,0.312,2.281c0.041,0.834-0.31,2.116-0.312,2.912
		s-0.029,8.649-0.029,8.649l0.221,0.331c0,0-0.19,0.332,0.473,0.914S21.63,32.469,21.778,32.643z"/>
</g>
<g>
</g>
<g>
</g>
<g>
</g>
<g>
</g>
<g>
</g>
<g>
</g>
<g>
</g>
<g>
</g>
<g>
</g>
<g>
</g>
<g>
</g>
<g>
</g>
<g>
</g>
<g>
</g>
<g>
</g>
</svg>
